<?xml version="1.0" standalone="no"?>
<!DOCTYPE svg PUBLIC "-//W3C//DTD SVG 20010904//EN"
 "http://www.w3.org/TR/2001/REC-SVG-20010904/DTD/svg10.dtd">
<svg version="1.0" xmlns="http://www.w3.org/2000/svg"
 width="380.000000pt" height="380.000000pt" viewBox="0 0 380.000000 380.000000"
 preserveAspectRatio="xMidYMid meet">

<g transform="translate(0.000000,380.000000) scale(0.100000,-0.100000)"
fill="#ffffff" stroke="black">
<path stroke-width="5" d="M1872 3147 c-29 -31 -95 -175 -131 -285 -68 -206 -81 -352 -81 -889
0 -327 2 -383 14 -383 8 0 18 -4 21 -10 10 -17 36 -328 43 -520 l7 -185 19 35
c22 40 34 50 53 43 10 -4 13 -40 13 -159 l0 -153 35 -7 c19 -3 51 -3 70 0 l35
7 0 153 c0 119 3 155 13 159 19 7 31 -3 53 -43 l19 -35 6 180 c7 180 35 510
45 526 3 5 12 9 20 9 12 0 14 58 14 399 0 461 -10 610 -51 769 -43 167 -133
378 -173 404 -17 11 -21 10 -44 -15z"/>
<path stroke-width="5" d="M1623 2760 c-97 -140 -103 -151 -103 -198 l0 -50 50 -11 c79 -17 77
-19 84 67 8 88 27 179 57 270 12 35 19 65 18 66 -2 2 -50 -63 -106 -144z"/>
<path stroke-width="5" d="M2074 2895 c3 -11 14 -49 25 -85 24 -78 51 -227 51 -281 0 -44 2 -45
80 -28 l50 11 0 50 c0 47 -5 58 -106 202 -58 83 -104 142 -100 131z"/>
<path stroke-width="5" d="M1665 1553 c-22 -57 -162 -431 -186 -500 -25 -71 -29 -95 -29 -191
l0 -110 48 -10 c140 -30 170 -35 185 -29 32 12 40 82 34 302 -5 182 -32 544
-41 553 -2 1 -7 -5 -11 -15z"/>
<path stroke-width="5" d="M2120 1562 c0 -6 -7 -89 -16 -184 -21 -218 -25 -613 -6 -645 14 -25
44 -29 102 -14 19 5 61 15 93 21 l57 11 0 117 0 117 -109 288 c-101 270 -121
317 -121 289z"/>
<path stroke-width="5" d="M1783 893 c-20 -36 -23 -57 -23 -153 0 -81 3 -110 13 -110 35 1 38
15 35 161 l-3 144 -22 -42z"/>
<path stroke-width="5" d="M1990 786 c0 -147 2 -156 41 -156 5 0 9 50 9 110 0 91 -4 118 -20
150 -11 22 -23 40 -25 40 -3 0 -5 -65 -5 -144z"/>
<path stroke-width="5" d="M2061 723 c-1 -54 7 -65 28 -39 8 10 9 16 2 21 -6 3 -15 20 -20 38
-9 30 -9 29 -10 -20z"/>
<path stroke-width="5" d="M1719 723 c-14 -28 -14 -34 -2 -44 19 -17 25 -7 21 38 l-3 40 -16
-34z"/>
</g>
</svg>
